<svg xmlns="http://www.w3.org/2000/svg" width="1015.3" height="357.5" style=""><rect id="backgroundrect" width="100%" height="100%" x="0" y="0" fill="none" stroke="none"/><g class="currentLayer" style=""><title>Layer 1</title><path class="logo-text" d="M213.8 351.4l-.5-139.9-147 .5.5 139.9-65.7.2L0 14.9l65.7-.2.5 135.6 147-.5-.5-135.6 66.1-.2 1.1 337.3-66.1.1zM387.5 216.2l57.5-8.8c13.3-1.9 17.6-8.6 17.5-16.7-.1-16.6-12.9-30.4-39.6-30.3-27.6.1-42.8 17.7-44.6 38.2l-56.2-11.7c3.7-36.6 37.3-77.2 100.1-77.4 74.2-.2 102 41.5 102.1 88.6l.4 115.1c0 12.4 1.5 29 3 37.1l-58 .2c-1.4-6.2-2.4-19-2.5-28.1-11.8 18.6-34.1 34.8-68.9 35-50 .2-80.5-33.5-80.6-70.1-.1-41.8 30.8-65.2 69.8-71.1zm75.3 39.7v-10.5l-52.8 8.3c-16.2 2.4-29 11.5-28.9 29.6 0 13.8 10.1 27.1 30.5 27 26.6 0 51.3-13 51.2-54.4zM599.9 0C621.8-.1 639 17.5 639 39.4c.1 20.9-17 38.6-38.9 38.7-21.4 0-39.1-17.5-39.1-38.5C560.9 17.7 578.5.1 599.9 0zm-30.3 350.2l-.8-234.1 63.3-.2.8 234.1-63.3.2zM908.9 232.1c.2 71.8-52.4 124.3-122.3 124.6-69.9.2-122.9-51.9-123.2-123.7-.2-72.3 52.4-124.3 122.3-124.6 70-.3 123 51.4 123.2 123.7zm-63.3.2c-.1-44.2-28.8-66.5-59.7-66.4-30.9.1-59.4 22.6-59.2 66.8.2 43.8 28.8 66.5 59.7 66.4 30.9-.1 59.4-22.6 59.2-66.8z" id="svg_1"/><path class="logo-stop selected" d="M971.3 265.7c24.3-.1 43.8 19.4 43.9 43.1.1 23.8-19.4 43.3-43.6 43.4-23.8.1-43.3-19.4-43.4-43.1-.1-23.8 19.4-43.4 43.1-43.4z" id="svg_2" fill-opacity="1" fill="#2480ff"/></g></svg>