<svg xmlns="http://www.w3.org/2000/svg" viewBox="0 0 64 64"><g transform="translate(18.885 11.323)"><path class="st2" d="M13.1-3.3c-8.2-.1-14.9 6.5-15 14.7v.3c0 3.6 2.7 11.1 6.9 18.9 2.2 4.5 5 8.7 8.1 12.6 3.1-3.9 5.9-8.1 8.1-12.6 4.2-7.8 6.9-15.3 6.9-18.9.1-8.2-6.5-14.9-14.7-15h-.3m0-6c11.5-.1 20.9 9.2 21 20.7v.3c0 11.7-15.9 39-21 39s-21-27.3-21-39C-8 .2 1.3-9.3 12.9-9.3h.2z"></path></g><g transform="translate(26.451 18.894)"><path class="st2" d="M5.5 13.1c-4.9.1-8.9-3.8-9-8.7v-.3c.1-5 4.1-8.9 9.1-8.9 4.9.1 8.8 4 8.9 8.9.1 4.9-3.8 8.9-8.7 9h-.3zm0-12C4 1 2.6 2.2 2.5 3.8v.3c0 1.7 1.4 3 3.1 2.9 1.6 0 2.9-1.3 2.9-2.9.1-1.6-1.1-2.9-2.7-3h-.3z"></path></g></svg>