<svg xmlns="http://www.w3.org/2000/svg" viewBox="0 0 219.641 165.351"><path d="M52.637,165.351C18.74,165.351,0,137.241,0,108.3,0,30.59,55.393,2.756,92.6,0V38.306c-19.842,2.2-46.3,17.362-47.952,43.542a34.113,34.113,0,0,1,12.4-2.756c28.11,0,44.094,18.189,44.094,42.991C101.14,145.785,80.746,165.351,52.637,165.351Zm118.5,0c-33.9,0-51.81-28.11-51.81-57.046C119.053,30.59,173.894,2.756,211.1,0V38.306c-19.842,2.2-46.3,17.362-47.952,43.542a34.113,34.113,0,0,1,12.4-2.756c28.11,0,44.094,18.189,44.094,42.991C219.641,145.785,199.248,165.351,171.138,165.351Z" fill="currentColor"></path></svg>