<svg xmlns="http://www.w3.org/2000/svg" viewBox="0 0 64 64"><path d="M48.658 58.647h-.3c-23.3-1-42-19.7-43-43-.1-2.1.7-4.2 2.2-5.6l2.6-2.6c2.9-2.8 7.4-2.8 10.3 0l5.6 5.6c2.8 2.9 2.8 7.4 0 10.3l-1 1c-.5.5-.5 1.4 0 1.9l12.8 12.5c.5.5 1.4.5 1.9 0l1.1-1.1c2.9-2.7 7.4-2.6 10.2.3l5.6 5.6c2.8 2.9 2.8 7.4 0 10.3l-2.8 2.7c-1.4 1.3-3.2 2.1-5.2 2.1zm-33.3-47.3c-.4 0-.7.1-1 .4l-2.7 2.7c-.3.2-.4.6-.4 1 1 20.1 17.2 36.3 37.3 37.2.4 0 .7-.1 1-.4l2.7-2.7c.5-.5.5-1.4 0-1.9l-5.6-5.6c-.4-.5-1.2-.6-1.7-.1l-2.2-2 2.1 2.1-.9.9c-2.9 2.8-7.4 2.8-10.3 0l-12.7-12.6c-2.8-2.8-2.8-7.4-.1-10.3l1-1c.5-.5.5-1.4 0-1.9l-5.6-5.5c-.2-.2-.6-.3-.9-.3zm27.4 28.6z"></path></svg>